<?xml version="1.0" encoding="utf-8"?>
<!-- Generator: Adobe Illustrator 26.0.1, SVG Export Plug-In . SVG Version: 6.00 Build 0)  -->
<svg version="1.1" id="Layer_1" xmlns="http://www.w3.org/2000/svg" xmlns:xlink="http://www.w3.org/1999/xlink" x="0px" y="0px"
	 viewBox="0 0 1080 1080" style="enable-background:new 0 0 1080 1080;" xml:space="preserve">
<g>
	<g>
		<path d="M462.8,332.8h-0.4v153.4c0,34.9-16.2,53.3-46.6,53.3c-28.4,0-44.2-18.6-45.4-45.4l-0.2-1.4h-70l0.2,2.1
			c1.7,64.8,44.9,107,116.1,107c74.8,0,118-42.3,118-114.9V462L462.8,332.8z"/>
		<g>
			<polygon points="779.8,310.4 659.6,526.4 659.6,601.9 587.5,601.9 587.5,526.4 534.6,431.1 480,332.8 467.5,310.4 545.4,310.4 
				622.8,457.6 624.5,457.6 701.7,310.4 			"/>
		</g>
	</g>
	<circle cx="737.8" cy="571.5" r="33.7"/>
	<g>
		<path d="M298.7,717.6l0-0.3h9.8l0,0.2c0.2,3.8,2.4,6.4,6.4,6.4c4.3,0,6.5-2.6,6.5-7.5v-33h10.1v33.1c0,10.2-6.1,16.1-16.6,16.1
			C305,732.6,298.9,726.7,298.7,717.6z"/>
		<path d="M340,714.7v-31.3h10.1v30.4c0,6.3,3.7,10.3,10.2,10.3c6.5,0,10.1-4,10.1-10.3v-30.4h10.1v31.3c0,10.7-7.8,18-20.3,18
			C347.9,732.6,340,725.5,340,714.7z"/>
		<path d="M388.7,683.4h8.9l21.9,31.5h0.2v-31.5h10.1v48.4h-8.8l-22-31.7h-0.2v31.7h-10.1V683.4z"/>
		<path d="M437.8,683.4h10.1v48.4h-10.1V683.4z"/>
		<path d="M454.5,707.6L454.5,707.6c0-15.5,9-25.1,23.4-25.1c14.4,0,23.4,9.6,23.4,25v0.1c0,15.4-9,25-23.4,25
			S454.5,723,454.5,707.6z M490.9,707.6L490.9,707.6c0-10.2-5.1-16.5-13-16.5c-7.9,0-13,6.3-13,16.4v0.1c0,10.1,5.1,16.4,13,16.4
			C485.9,724.1,490.9,717.6,490.9,707.6z"/>
		<path d="M507.7,683.4h20c10.9,0,17.3,5.8,17.3,15.5v0.1c0,6.4-3.4,11.7-8.8,13.8l10.2,19.1H535l-9-17.6h-8.1v17.6h-10.1V683.4z
			 M526.6,706.6c5,0,8.1-2.9,8.1-7.6v-0.1c0-4.6-3.2-7.6-8.2-7.6h-8.6v15.3H526.6z"/>
		<path d="M579.1,713.7l-16.9-30.3h10.9l10.9,20.7h0.2l10.8-20.7h11l-16.9,30.3v18.1h-10.1V713.7z"/>
		<path d="M618.2,683.4h11.9l16.9,48.4h-10.6l-3.7-11.7h-17.1l-3.7,11.7h-10.6L618.2,683.4z M617.9,712.5h12.4l-6.1-19.7H624
			L617.9,712.5z"/>
		<path d="M652,683.4h8.9l21.9,31.5h0.2v-31.5H693v48.4h-8.8l-22-31.7h-0.2v31.7H652V683.4z"/>
		<path d="M701.1,683.4h18.5c14.5,0,23.1,8.6,23.1,24v0.1c0,15.4-8.6,24.4-23.1,24.4h-18.5V683.4z M718.4,723.4c9.1,0,14-5.5,14-16
			v-0.1c0-10.1-5.1-15.6-14-15.6h-7.1v31.7H718.4z"/>
		<path d="M749.2,683.4h32.1v8.4h-22v11.6h20.7v7.9h-20.7v12.2h22v8.4h-32.1V683.4z"/>
	</g>
	<g>
		<rect x="290.9" y="762.1" width="498.1" height="7.5"/>
		<rect x="290.9" y="640.6" width="498.1" height="7.5"/>
	</g>
</g>
</svg>
